<?xml version="1.0" encoding="utf-8"?>
<svg xmlns="http://www.w3.org/2000/svg" viewBox="0 0 500 500" xmlns:bx="https://boxy-svg.com">
  <rect x="76.543" y="80.864" width="356.173" height="64.198" style="fill: rgb(216, 216, 216); stroke: rgb(0, 0, 0);"/>
  <path style="fill: rgb(216, 216, 216); stroke: rgb(0, 0, 0);" d="M 46.297 286.419 L 72.223 217.901 C 80.55 182.511 82.098 145.679 82.098 145.679"/>
  <path style="fill: rgb(216, 216, 216); stroke: rgb(0, 0, 0);" d="M 163.58 166.049 L 158.642 227.16 L 133.333 295.062"/>
  <path style="fill: rgb(216, 216, 216); stroke: rgb(0, 0, 0);" d="M 46.296 285.185 L 132.716 295.062"/>
  <polyline style="fill: rgb(216, 216, 216); stroke: rgb(0, 0, 0);" points="423.457 145.679 423.457 154.321 161.728 162.963"/>
  <polyline style="fill: rgb(216, 216, 216); stroke: rgb(0, 0, 0);" points="232.716 198.148 219.753 198.765 159.877 200"/>
  <path style="fill: rgb(216, 216, 216); stroke: rgb(0, 0, 0);" d="M 216.667 160.494 L 217.901 175.309 C 217.901 175.309 228.395 197.531 228.395 196.914"/>
  <path style="fill: rgb(216, 216, 216); stroke: rgb(0, 0, 0);" d="M 160.494 209.259 L 243.827 206.79 L 229.012 180.247 C 229.012 180.247 227.16 162.346 226.543 162.346"/>
  <path style="fill: rgb(216, 216, 216); stroke: rgb(0, 0, 0);" d="M 179.629 162.963 L 197.531 191.358 C 197.531 190.124 183.333 187.037 183.333 187.037 L 170.37 164.815"/>
  <path d="M 79.013 67.902 L 101.852 80.247 L 79.013 80.247 L 79.013 67.902 Z" bx:shape="triangle 79.013 67.902 22.839 12.345 0 0 1@f0acbdea" style="fill: rgb(216, 216, 216); stroke: rgb(0, 0, 0);"/>
  <path d="M -420.99 67.902 L -398.151 80.247 L -420.99 80.247 L -420.99 67.902 Z" bx:shape="triangle -420.99 67.902 22.839 12.345 0 0 1@f9f586bb" style="fill: rgb(216, 216, 216); stroke: rgb(0, 0, 0);" transform="matrix(-1, 0, 0, 1, 0, 0)"/>
  <rect x="431.481" y="91.975" width="8.642" height="23.457" style="fill: rgb(216, 216, 216); stroke: rgb(0, 0, 0);"/>
</svg>
